<mxfile host="65bd71144e">
    <diagram id="lJ2OtIyJjg2ANw-LhyhI" name="第 1 页">
        <mxGraphModel dx="650" dy="1025" grid="1" gridSize="10" guides="1" tooltips="1" connect="1" arrows="1" fold="1" page="1" pageScale="1" pageWidth="827" pageHeight="1169" math="0" shadow="0">
            <root>
                <mxCell id="0"/>
                <mxCell id="1" parent="0"/>
                <mxCell id="2" value="" style="rounded=1;whiteSpace=wrap;html=1;fillColor=#ffe6cc;strokeColor=#d79b00;" vertex="1" parent="1">
                    <mxGeometry x="216" y="90" width="200" height="590" as="geometry"/>
                </mxCell>
                <mxCell id="4" value="Type(ID=1)" style="swimlane;fontStyle=0;childLayout=stackLayout;horizontal=1;startSize=30;horizontalStack=0;resizeParent=1;resizeParentMax=0;resizeLast=0;collapsible=1;marginBottom=0;fillColor=#dae8fc;strokeColor=#6c8ebf;gradientColor=#7ea6e0;fontColor=#050505;" vertex="1" parent="1">
                    <mxGeometry x="240" y="120" width="160" height="120" as="geometry"/>
                </mxCell>
                <mxCell id="5" value="(i32,i32)-&gt;(i32)" style="text;strokeColor=none;fillColor=none;align=left;verticalAlign=middle;spacingLeft=4;spacingRight=4;overflow=hidden;points=[[0,0.5],[1,0.5]];portConstraint=eastwest;rotatable=0;fontColor=#000000;" vertex="1" parent="4">
                    <mxGeometry y="30" width="160" height="30" as="geometry"/>
                </mxCell>
                <mxCell id="6" value="(i64,i64) -&gt; ()" style="text;strokeColor=none;fillColor=none;align=left;verticalAlign=middle;spacingLeft=4;spacingRight=4;overflow=hidden;points=[[0,0.5],[1,0.5]];portConstraint=eastwest;rotatable=0;fontColor=#000000;" vertex="1" parent="4">
                    <mxGeometry y="60" width="160" height="30" as="geometry"/>
                </mxCell>
                <mxCell id="7" value="() -&gt; ()" style="text;strokeColor=none;fillColor=none;align=left;verticalAlign=middle;spacingLeft=4;spacingRight=4;overflow=hidden;points=[[0,0.5],[1,0.5]];portConstraint=eastwest;rotatable=0;fontColor=#000000;" vertex="1" parent="4">
                    <mxGeometry y="90" width="160" height="30" as="geometry"/>
                </mxCell>
                <mxCell id="11" value="Function(ID=3)" style="swimlane;fontStyle=0;childLayout=stackLayout;horizontal=1;startSize=30;horizontalStack=0;resizeParent=1;resizeParentMax=0;resizeLast=0;collapsible=1;marginBottom=0;fillColor=#dae8fc;strokeColor=#6c8ebf;gradientColor=#7ea6e0;fontColor=#050505;" vertex="1" parent="1">
                    <mxGeometry x="240" y="319" width="160" height="120" as="geometry"/>
                </mxCell>
                <mxCell id="12" value="Type 0" style="text;strokeColor=none;fillColor=none;align=left;verticalAlign=middle;spacingLeft=4;spacingRight=4;overflow=hidden;points=[[0,0.5],[1,0.5]];portConstraint=eastwest;rotatable=0;fontColor=#000000;shadow=0;glass=0;" vertex="1" parent="11">
                    <mxGeometry y="30" width="160" height="30" as="geometry"/>
                </mxCell>
                <mxCell id="13" value="Type 2" style="text;strokeColor=none;fillColor=none;align=left;verticalAlign=middle;spacingLeft=4;spacingRight=4;overflow=hidden;points=[[0,0.5],[1,0.5]];portConstraint=eastwest;rotatable=0;fontColor=#000000;" vertex="1" parent="11">
                    <mxGeometry y="60" width="160" height="30" as="geometry"/>
                </mxCell>
                <mxCell id="14" value="Type 1" style="text;strokeColor=none;fillColor=none;align=left;verticalAlign=middle;spacingLeft=4;spacingRight=4;overflow=hidden;points=[[0,0.5],[1,0.5]];portConstraint=eastwest;rotatable=0;fontColor=#000000;" vertex="1" parent="11">
                    <mxGeometry y="90" width="160" height="30" as="geometry"/>
                </mxCell>
                <mxCell id="66" style="edgeStyle=none;html=1;exitX=1.031;exitY=0.133;exitDx=0;exitDy=0;exitPerimeter=0;entryX=0;entryY=0.5;entryDx=0;entryDy=0;" edge="1" parent="1" source="31" target="54">
                    <mxGeometry relative="1" as="geometry">
                        <mxPoint x="170" y="538" as="targetPoint"/>
                    </mxGeometry>
                </mxCell>
                <mxCell id="31" value="Code(ID=10)" style="swimlane;fontStyle=0;childLayout=stackLayout;horizontal=1;startSize=30;horizontalStack=0;resizeParent=1;resizeParentMax=0;resizeLast=0;collapsible=1;marginBottom=0;fillColor=#dae8fc;strokeColor=#6c8ebf;gradientColor=#7ea6e0;fontColor=#050505;" vertex="1" parent="1">
                    <mxGeometry x="240" y="520" width="160" height="120" as="geometry"/>
                </mxCell>
                <mxCell id="32" value="Fucntion 0 代码" style="text;strokeColor=none;fillColor=none;align=left;verticalAlign=middle;spacingLeft=4;spacingRight=4;overflow=hidden;points=[[0,0.5],[1,0.5]];portConstraint=eastwest;rotatable=0;fontColor=#000000;" vertex="1" parent="31">
                    <mxGeometry y="30" width="160" height="30" as="geometry"/>
                </mxCell>
                <mxCell id="33" value="Function 1 代码" style="text;strokeColor=none;fillColor=none;align=left;verticalAlign=middle;spacingLeft=4;spacingRight=4;overflow=hidden;points=[[0,0.5],[1,0.5]];portConstraint=eastwest;rotatable=0;fontColor=#000000;" vertex="1" parent="31">
                    <mxGeometry y="60" width="160" height="30" as="geometry"/>
                </mxCell>
                <mxCell id="34" value="Function 2 代码" style="text;strokeColor=none;fillColor=none;align=left;verticalAlign=middle;spacingLeft=4;spacingRight=4;overflow=hidden;points=[[0,0.5],[1,0.5]];portConstraint=eastwest;rotatable=0;fontColor=#000000;" vertex="1" parent="31">
                    <mxGeometry y="90" width="160" height="30" as="geometry"/>
                </mxCell>
                <mxCell id="39" style="edgeStyle=none;html=1;exitX=0;exitY=0.5;exitDx=0;exitDy=0;fontColor=#000000;" edge="1" parent="1">
                    <mxGeometry relative="1" as="geometry">
                        <mxPoint x="150" y="139" as="targetPoint"/>
                        <mxPoint x="240" y="139" as="sourcePoint"/>
                    </mxGeometry>
                </mxCell>
                <mxCell id="40" value="模块中使用的不重复函数签名列表" style="text;html=1;strokeColor=none;fillColor=none;align=center;verticalAlign=middle;whiteSpace=wrap;rounded=0;fontColor=#000000;" vertex="1" parent="1">
                    <mxGeometry x="50" y="124" width="100" height="30" as="geometry"/>
                </mxCell>
                <mxCell id="42" value="模块中所有函数的列表" style="text;html=1;strokeColor=none;fillColor=none;align=center;verticalAlign=middle;whiteSpace=wrap;rounded=0;fontColor=#000000;" vertex="1" parent="1">
                    <mxGeometry x="50" y="332" width="100" height="30" as="geometry"/>
                </mxCell>
                <mxCell id="43" style="edgeStyle=none;html=1;exitX=-0.006;exitY=0.167;exitDx=0;exitDy=0;entryX=1;entryY=0.25;entryDx=0;entryDy=0;exitPerimeter=0;fontColor=#000000;" edge="1" parent="1" source="11" target="42">
                    <mxGeometry relative="1" as="geometry"/>
                </mxCell>
                <mxCell id="54" value="Function段中定义的每个函数的函数体" style="text;html=1;strokeColor=none;fillColor=none;align=center;verticalAlign=middle;whiteSpace=wrap;rounded=0;fontColor=#000000;" vertex="1" parent="1">
                    <mxGeometry x="520" y="519" width="120" height="35" as="geometry"/>
                </mxCell>
                <mxCell id="57" value="0" style="text;html=1;strokeColor=none;fillColor=none;align=center;verticalAlign=middle;whiteSpace=wrap;rounded=0;fontColor=#050505;" vertex="1" parent="1">
                    <mxGeometry x="220" y="160" width="20" height="10" as="geometry"/>
                </mxCell>
                <mxCell id="58" value="1" style="text;html=1;strokeColor=none;fillColor=none;align=center;verticalAlign=middle;whiteSpace=wrap;rounded=0;fontColor=#050505;" vertex="1" parent="1">
                    <mxGeometry x="220" y="190" width="20" height="10" as="geometry"/>
                </mxCell>
                <mxCell id="59" value="2" style="text;html=1;strokeColor=none;fillColor=none;align=center;verticalAlign=middle;whiteSpace=wrap;rounded=0;fontColor=#050505;" vertex="1" parent="1">
                    <mxGeometry x="220" y="221" width="20" height="10" as="geometry"/>
                </mxCell>
                <mxCell id="60" value="0" style="text;html=1;strokeColor=none;fillColor=none;align=center;verticalAlign=middle;whiteSpace=wrap;rounded=0;fontColor=#050505;" vertex="1" parent="1">
                    <mxGeometry x="220" y="359.5" width="20" height="10" as="geometry"/>
                </mxCell>
                <mxCell id="61" value="1" style="text;html=1;strokeColor=none;fillColor=none;align=center;verticalAlign=middle;whiteSpace=wrap;rounded=0;fontColor=#050505;" vertex="1" parent="1">
                    <mxGeometry x="220" y="389.5" width="20" height="10" as="geometry"/>
                </mxCell>
                <mxCell id="62" value="2" style="text;html=1;strokeColor=none;fillColor=none;align=center;verticalAlign=middle;whiteSpace=wrap;rounded=0;fontColor=#050505;" vertex="1" parent="1">
                    <mxGeometry x="220" y="420.5" width="20" height="10" as="geometry"/>
                </mxCell>
                <mxCell id="63" value="0" style="text;html=1;strokeColor=none;fillColor=none;align=center;verticalAlign=middle;whiteSpace=wrap;rounded=0;fontColor=#050505;" vertex="1" parent="1">
                    <mxGeometry x="220" y="560" width="20" height="10" as="geometry"/>
                </mxCell>
                <mxCell id="64" value="1" style="text;html=1;strokeColor=none;fillColor=none;align=center;verticalAlign=middle;whiteSpace=wrap;rounded=0;fontColor=#050505;" vertex="1" parent="1">
                    <mxGeometry x="220" y="590" width="20" height="10" as="geometry"/>
                </mxCell>
                <mxCell id="65" value="2" style="text;html=1;strokeColor=none;fillColor=none;align=center;verticalAlign=middle;whiteSpace=wrap;rounded=0;fontColor=#050505;" vertex="1" parent="1">
                    <mxGeometry x="220" y="621" width="20" height="10" as="geometry"/>
                </mxCell>
                <mxCell id="69" value="" style="shape=curlyBracket;whiteSpace=wrap;html=1;rounded=1;flipH=1;" vertex="1" parent="1">
                    <mxGeometry x="400" y="180" width="100" height="210" as="geometry"/>
                </mxCell>
                <mxCell id="72" value="函数段中的值匹配类型段中的索引值" style="text;html=1;strokeColor=none;fillColor=none;align=center;verticalAlign=middle;whiteSpace=wrap;rounded=0;fontColor=#050505;" vertex="1" parent="1">
                    <mxGeometry x="500" y="247" width="80" height="80" as="geometry"/>
                </mxCell>
                <mxCell id="73" value="" style="shape=curlyBracket;whiteSpace=wrap;html=1;rounded=1;" vertex="1" parent="1">
                    <mxGeometry x="130" y="390" width="90" height="210" as="geometry"/>
                </mxCell>
                <mxCell id="74" value="函数段中的索引对应代码段的索引" style="text;html=1;strokeColor=none;fillColor=none;align=center;verticalAlign=middle;whiteSpace=wrap;rounded=0;fontColor=#050505;" vertex="1" parent="1">
                    <mxGeometry x="20" y="470" width="90" height="50" as="geometry"/>
                </mxCell>
            </root>
        </mxGraphModel>
    </diagram>
</mxfile>